<?xml version="1.0" standalone="no"?>
<!DOCTYPE svg PUBLIC "-//W3C//DTD SVG 20010904//EN"
 "http://www.w3.org/TR/2001/REC-SVG-20010904/DTD/svg10.dtd">
<svg version="1.0" xmlns="http://www.w3.org/2000/svg"
 width="500.000000pt" height="500.000000pt" viewBox="0 0 500.000000 500.000000"
 preserveAspectRatio="xMidYMid meet">
<metadata>
Created by potrace 1.14, written by Peter Selinger 2001-2017
</metadata>
<g transform="translate(0.000000,500.000000) scale(0.100000,-0.100000)"
fill="#000000" stroke="none">
<path d="M2397 4673 c-14 -13 -6 -41 13 -46 14 -4 20 0 20 13 0 20 -23 43 -33
33z"/>
<path d="M1306 4635 c-24 -18 -14 -43 21 -51 15 -4 33 -10 38 -15 6 -4 17 -4
24 0 11 7 10 14 -5 37 -30 48 -46 53 -78 29z"/>
<path d="M2813 4603 c-17 -6 -16 -48 1 -62 11 -9 17 -8 29 4 9 8 21 15 27 15
6 0 -1 11 -16 25 -15 14 -27 25 -28 24 -1 0 -7 -3 -13 -6z"/>
<path d="M2480 4570 c-14 -27 -3 -62 18 -58 12 2 17 14 17 37 0 40 -19 51 -35
21z"/>
<path d="M2391 4561 c-8 -5 -9 -11 -3 -15 5 -3 12 1 16 9 6 17 6 18 -13 6z"/>
<path d="M2156 4524 c-16 -24 -19 -24 -35 -10 -11 10 -36 16 -68 16 -43 0 -56
-5 -83 -30 -18 -16 -34 -30 -36 -30 -2 0 -12 10 -24 22 -11 12 -23 19 -26 15
-4 -4 5 -16 20 -28 20 -16 24 -24 16 -34 -6 -7 -12 -27 -15 -44 -2 -17 -6 -35
-10 -41 -3 -5 -3 -10 2 -10 4 0 16 -17 26 -38 17 -35 64 -72 92 -72 7 0 16
-10 20 -22 l7 -23 7 25 c4 14 14 25 23 25 8 0 22 6 30 12 8 7 25 14 38 16 25
4 48 48 49 95 1 17 7 22 28 22 14 0 23 3 19 7 -4 4 -15 8 -23 8 -9 0 -21 13
-26 30 -6 17 -16 34 -23 38 -19 11 -18 27 3 49 9 10 14 20 11 23 -3 3 -13 -6
-22 -21z"/>
<path d="M1756 4523 c-8 -21 -1 -27 17 -16 12 6 13 10 2 20 -10 10 -15 9 -19
-4z"/>
<path d="M2733 4489 c-20 -13 -33 -16 -33 -9 0 6 -4 9 -9 5 -5 -3 -12 -2 -15
3 -2 4 -20 6 -39 4 -31 -3 -35 -8 -39 -35 -7 -64 1 -85 32 -89 38 -6 60 7 55
32 -2 11 0 20 5 20 4 0 6 9 3 19 -4 16 2 21 34 26 56 10 63 13 63 30 0 21 -19
19 -57 -6z"/>
<path d="M2869 4491 c-20 -16 -22 -23 -14 -47 9 -26 15 -29 63 -32 47 -3 53
-1 61 20 7 18 4 28 -15 48 -29 32 -65 36 -95 11z"/>
<path d="M2389 4493 c-5 -51 -8 -163 -5 -179 3 -11 15 -31 26 -44 17 -20 20
-37 20 -133 0 -61 -1 -108 -3 -106 -23 32 -37 60 -26 53 12 -6 12 -5 0 9 -11
13 -11 17 -1 17 8 0 11 2 8 5 -12 13 -36 -9 -42 -37 -10 -52 -19 -23 -24 77
-3 82 -1 96 13 101 13 5 14 8 3 15 -7 5 -13 25 -13 46 0 27 -4 38 -15 39 -26
1 -32 -8 -16 -25 18 -20 21 -46 11 -111 -3 -25 -7 -82 -8 -127 -2 -74 -4 -80
-19 -72 -10 5 -18 7 -18 3 0 -4 -9 1 -21 12 -12 10 -24 18 -28 16 -3 -2 -9 13
-12 33 -3 19 -9 38 -13 42 -4 4 -93 8 -199 8 l-191 0 -3 -44 c-4 -59 -14 -68
-50 -43 -23 17 -47 22 -136 25 -91 3 -109 7 -122 23 -14 19 -14 19 -30 -1 -9
-11 -14 -15 -11 -9 3 7 -1 14 -9 18 -8 3 -15 2 -15 -3 0 -4 -11 -20 -25 -35
-29 -31 -30 -41 -11 -87 24 -56 51 -81 90 -81 38 0 50 -19 32 -49 -8 -15 -11
-15 -38 0 -27 15 -30 15 -43 -3 -8 -10 -13 -26 -11 -35 7 -39 19 -71 25 -71 3
0 7 -25 9 -55 3 -51 25 -114 37 -107 3 2 23 1 44 -3 33 -5 37 -9 34 -29 -3
-12 -10 -23 -16 -24 -45 -4 -106 -12 -125 -16 -12 -3 -57 -6 -100 -7 -119 -3
-112 4 -106 -105 4 -85 2 -96 -16 -112 -11 -9 -24 -17 -28 -17 -22 -2 -58 -20
-79 -41 -13 -13 -29 -24 -36 -24 -8 0 -9 -2 -1 -8 7 -5 5 -14 -9 -27 -17 -17
-19 -17 -14 -2 4 9 2 17 -3 17 -6 0 -11 -4 -11 -10 -1 -5 -2 -15 -3 -20 0 -6
-8 -15 -16 -20 -10 -7 -11 -10 -2 -10 6 0 11 -3 11 -7 -3 -20 2 -27 10 -14 8
12 12 10 21 -10 17 -36 66 -64 85 -49 8 7 15 18 15 25 0 18 41 11 56 -10 7
-10 11 -22 8 -26 -2 -4 2 -24 10 -44 8 -19 12 -35 9 -35 -3 0 -1 -6 5 -13 7
-9 8 -26 1 -55 -5 -24 -7 -47 -4 -51 2 -5 24 -8 47 -7 36 1 43 4 43 21 0 35
46 65 71 45 7 -6 18 -10 26 -9 43 5 43 4 40 -118 -2 -112 -17 -305 -26 -348
-3 -11 -5 -23 -5 -27 -1 -5 -6 -8 -11 -8 -6 0 -9 3 -9 8 3 18 -2 32 -12 32 -6
0 -21 8 -34 18 -15 12 -39 18 -67 18 -42 -1 -43 -2 -49 -41 -4 -22 -6 -67 -5
-99 2 -57 1 -61 -32 -90 -20 -17 -47 -32 -60 -33 -61 -5 -89 -28 -96 -81 -4
-25 -23 -25 -30 0 -9 34 -7 50 4 43 7 -4 9 3 6 21 -5 27 -21 44 -43 44 -6 0
-13 8 -16 18 -3 13 -6 10 -11 -10 -6 -20 -13 -27 -29 -24 -26 4 -74 -19 -109
-52 -26 -24 -26 -26 -12 -53 8 -16 21 -29 28 -29 7 0 19 -7 26 -15 10 -12 10
-15 0 -15 -11 0 -9 -66 5 -135 2 -11 4 -22 4 -25 1 -3 37 -7 82 -8 55 -2 79 0
74 7 -3 6 -1 11 4 11 6 0 10 -11 9 -25 -1 -14 -5 -25 -8 -25 -4 0 -5 -13 -2
-30 3 -21 0 -30 -9 -30 -11 0 -11 -2 -1 -8 9 -7 7 -13 -9 -28 -20 -17 -22 -17
-16 -2 3 10 1 20 -5 24 -7 4 -8 3 -4 -4 4 -7 2 -12 -4 -12 -8 0 -10 9 -6 24 9
37 -3 56 -34 56 -15 0 -33 7 -40 15 -17 21 -48 19 -62 -5 -7 -11 -18 -20 -25
-20 -6 0 -19 -8 -28 -17 -16 -16 -16 -17 0 -29 10 -7 15 -19 12 -27 -6 -17 5
-38 24 -41 8 -1 26 -10 41 -20 27 -17 30 -17 64 -1 29 13 38 14 51 4 18 -15
46 -21 37 -8 -3 5 1 9 8 9 8 0 7 4 -4 11 -20 11 -13 40 8 32 8 -3 11 -10 7
-16 -3 -6 -1 -7 5 -3 14 9 16 36 3 36 -9 0 -2 70 9 100 5 13 -3 46 -13 52 -7
4 -5 12 5 22 15 14 19 14 50 -1 18 -9 49 -29 68 -45 19 -15 43 -28 53 -28 10
0 15 -4 12 -10 -3 -5 0 -7 8 -5 16 7 71 -52 82 -86 4 -13 9 -35 10 -49 1 -15
8 -37 15 -51 30 -54 47 -197 34 -280 -5 -36 -6 -37 -32 -24 -15 8 -41 16 -59
18 -44 7 -50 12 -57 53 -8 41 6 64 38 64 19 0 19 2 -6 18 -20 13 -25 21 -17
29 8 8 8 17 0 32 -20 36 -59 20 -53 -22 2 -9 -3 -17 -10 -17 -7 0 -22 -3 -33
-6 -18 -5 -21 0 -22 31 -1 40 -35 85 -63 85 -9 0 -25 7 -36 15 -26 20 -48 19
-86 -5 -18 -11 -40 -20 -49 -20 -41 0 -81 -85 -48 -105 5 -4 9 -17 8 -28 -3
-39 1 -44 31 -57 17 -7 35 -21 41 -31 8 -16 14 -17 30 -9 11 6 17 15 14 21 -8
12 17 7 28 -6 6 -6 10 -6 14 3 5 13 55 42 72 42 6 0 8 -6 5 -13 -2 -7 -6 -36
-8 -64 -2 -37 -11 -61 -31 -87 l-27 -36 -27 29 c-34 38 -119 91 -146 91 -18 0
-21 -5 -17 -30 2 -17 -2 -40 -11 -54 -18 -27 -11 -42 11 -23 13 10 14 9 5 -8
-8 -15 -8 -26 1 -43 12 -22 12 -23 34 -4 12 11 22 24 22 31 0 15 20 10 44 -12
11 -9 34 -17 51 -17 27 0 33 -5 42 -35 8 -26 8 -35 0 -36 -69 -4 -103 -24
-127 -73 -11 -23 -27 -52 -35 -66 -14 -24 -14 -22 -11 28 2 30 11 61 20 71 22
24 20 37 -4 37 -11 0 -20 -4 -20 -9 0 -4 -5 -5 -11 -2 -5 4 -20 -1 -31 -12
-21 -18 -21 -18 -14 10 4 19 3 26 -3 22 -6 -3 -8 0 -5 8 3 8 1 18 -5 22 -6 3
-11 2 -11 -3 0 -6 -8 -9 -17 -8 -13 1 -19 -8 -21 -31 -3 -30 -5 -31 -28 -23
-65 25 -74 -6 -15 -48 36 -26 38 -30 24 -44 -25 -26 -2 -56 38 -50 31 5 50
-11 55 -43 0 -5 2 -15 2 -21 3 -16 36 -23 56 -12 21 12 21 38 -1 38 -15 0 -16
2 -3 10 8 5 11 10 5 10 -5 0 -3 5 5 10 8 5 29 9 45 9 38 -1 116 -35 95 -42
-91 -30 -111 -41 -127 -68 -10 -16 -25 -29 -34 -29 -17 0 -68 -59 -61 -70 2
-2 -2 -6 -10 -8 -8 -2 -9 0 -3 5 15 12 17 33 5 47 -5 7 -7 16 -3 19 3 4 2 7
-4 7 -18 0 -31 -24 -28 -53 3 -23 0 -27 -16 -22 -24 8 -24 4 0 -23 21 -25 46
-29 37 -7 -4 10 1 15 15 15 15 0 17 -3 9 -13 -6 -6 -17 -21 -24 -31 -13 -19
-15 -19 -40 -2 -28 18 -72 18 -69 1 1 -6 5 -18 8 -27 6 -15 1 -18 -34 -18 -28
0 -41 -4 -41 -14 0 -8 -7 -16 -15 -20 -8 -3 -15 -2 -15 2 0 6 -62 8 -124 3
-20 -1 -20 -1 0 -16 10 -8 34 -17 52 -21 19 -4 36 -12 38 -19 6 -14 194 -17
194 -3 0 8 -9 9 -120 11 -57 0 -68 3 -58 14 6 7 13 11 16 8 3 -3 11 0 19 6 10
9 17 8 30 -2 15 -12 16 -12 10 6 -7 20 -7 20 8 1 11 -14 15 -16 15 -5 0 12 2
12 9 0 6 -10 29 -14 75 -15 36 0 66 -4 66 -9 0 -4 -5 -5 -10 -2 -11 7 -14 -8
-3 -18 3 -4 11 0 18 9 8 11 27 16 61 16 129 -1 154 -3 153 -9 -6 -35 12 -41
123 -44 50 -1 76 -6 75 -13 -1 -6 4 -10 11 -9 6 2 12 -5 12 -15 0 -11 10 -27
22 -38 12 -10 18 -13 13 -5 -6 10 -4 13 6 9 8 -3 23 0 34 8 18 14 18 14 -1 15
-10 1 -23 1 -27 0 -5 -1 -6 3 -2 8 3 6 13 7 22 4 10 -4 14 -2 10 4 -5 7 7 10
32 9 27 -2 43 3 52 15 7 9 18 15 26 12 7 -3 13 1 13 10 0 17 47 11 68 -9 10
-10 17 -11 31 -2 19 12 24 38 7 38 -18 0 45 50 71 56 13 4 23 10 23 14 0 16
33 20 49 6 22 -20 78 -26 67 -8 -3 5 1 9 9 9 11 0 12 -4 4 -13 -11 -13 3 -28
15 -16 4 4 17 7 29 7 12 1 21 6 20 13 -2 7 2 12 7 12 6 0 8 10 4 24 -6 24 16
55 39 57 28 3 63 -4 75 -14 7 -5 38 -11 68 -12 51 -2 55 -1 60 24 10 45 12 48
41 63 l29 14 -2 -43 c-2 -39 2 -45 27 -59 42 -21 66 -62 68 -115 1 -17 51 -34
51 -17 0 5 5 6 12 2 14 -9 185 -2 204 8 16 9 168 3 189 -8 11 -6 60 -9 110 -7
148 6 262 6 410 1 174 -6 222 4 244 49 9 18 21 33 28 33 6 0 15 10 19 23 15
50 74 81 74 38 0 -27 -26 -50 -50 -44 -14 4 -20 0 -20 -11 0 -10 5 -14 10 -11
6 3 10 1 10 -4 0 -6 -5 -11 -11 -11 -5 0 -7 -5 -4 -10 3 -6 -1 -11 -9 -11 -29
-3 -34 -4 -43 -12 -4 -5 -3 -7 2 -6 9 2 90 -8 140 -17 34 -7 115 -7 122 -1 3
4 0 14 -8 24 -12 15 -12 16 3 11 30 -12 27 19 -5 56 -19 20 -42 36 -54 36 -33
0 -39 20 -12 42 13 11 18 16 10 12 -9 -5 -12 -3 -7 5 4 6 11 9 16 6 5 -3 23 1
41 10 29 15 32 15 50 0 18 -17 21 -35 7 -45 -14 -11 9 -29 30 -23 12 3 19 9
16 14 -3 5 3 6 12 2 11 -4 13 -8 6 -11 -21 -7 -13 -30 18 -48 29 -18 48 -44
30 -44 -5 0 -18 -10 -30 -22 -11 -12 -32 -24 -47 -26 -33 -4 -57 -22 -46 -33
4 -4 41 -9 81 -10 40 -1 75 -5 77 -9 3 -4 42 -8 87 -8 46 -1 100 -3 121 -5 42
-5 49 8 12 25 -32 14 -32 30 0 45 14 6 25 8 25 4 0 -13 37 -5 54 11 15 16 34
16 104 2 18 -4 45 -1 63 6 l30 13 -22 23 c-16 17 -18 24 -8 24 8 1 3 11 -15
26 -26 23 -27 28 -16 50 8 13 10 27 6 31 -17 17 -40 9 -75 -26 -21 -21 -50
-41 -65 -45 -15 -4 -33 -11 -39 -17 -7 -5 -21 -17 -32 -25 -11 -9 -13 -12 -5
-8 13 7 13 5 2 -8 -10 -13 -10 -17 0 -21 9 -4 9 -6 -2 -6 -30 -2 -79 38 -89
71 -9 34 -9 35 58 90 12 10 11 13 -5 19 -10 3 -22 5 -25 3 -4 -2 -9 3 -13 11
-3 10 1 15 12 15 10 0 13 3 6 8 -8 5 -9 30 -3 82 8 74 16 123 20 128 1 1 2 7
3 12 0 6 7 14 15 19 11 7 11 13 0 32 -15 28 -14 29 21 51 27 16 31 41 13 88
-4 8 -5 18 -5 23 1 4 -3 7 -9 7 -10 0 -7 -16 9 -59 4 -10 1 -12 -9 -6 -12 8
-12 6 0 -8 9 -12 10 -17 2 -17 -7 0 -10 -4 -7 -9 4 -5 -2 -7 -12 -4 -15 3 -17
14 -16 66 1 34 2 62 4 62 1 0 3 15 4 33 1 19 8 37 15 42 8 4 9 9 3 11 -18 7
35 106 61 113 43 10 75 50 83 102 9 67 38 120 79 147 40 25 44 42 14 50 -16 4
-19 11 -14 27 8 25 -10 50 -36 50 -11 0 -19 7 -19 15 0 18 -36 39 -45 25 -11
-18 -40 -11 -50 13 -13 29 -51 34 -84 9 l-27 -20 -27 24 c-31 27 -52 23 -83
-14 -18 -22 -24 -24 -51 -14 -39 13 -43 9 -32 -31 12 -43 12 -44 -11 -50 -26
-7 -26 -23 0 -37 28 -15 41 -51 47 -135 6 -86 27 -124 87 -155 42 -23 44 -26
45 -71 0 -26 2 -51 3 -56 1 -4 -2 -43 -6 -85 -6 -58 -11 -76 -21 -72 -8 3 -13
11 -11 17 1 7 1 9 -1 5 -3 -5 -15 -8 -27 -8 -13 0 -34 -9 -47 -19 -24 -19 -25
-19 -50 3 -29 25 -66 83 -58 91 3 2 19 1 36 -4 37 -11 43 -7 43 28 0 15 7 36
15 47 25 36 2 117 -43 149 -15 11 -37 30 -51 43 l-24 24 5 -30 c4 -29 3 -29
-26 -21 -17 5 -33 9 -36 9 -3 0 8 11 24 23 32 26 36 38 38 110 0 31 4 44 9 35
6 -9 9 -7 9 9 0 12 6 24 13 26 7 4 6 6 -5 6 -9 1 -19 -5 -21 -11 -4 -9 -6 -9
-6 1 -1 8 -8 23 -18 33 -9 10 -11 18 -5 18 6 0 9 7 6 15 -4 9 0 15 9 15 9 0
19 5 23 12 5 8 2 9 -9 5 -14 -5 -14 -1 3 31 11 20 20 43 20 51 0 32 24 90 34
84 6 -4 6 0 -1 8 -10 12 -10 18 -1 27 9 9 8 16 -6 30 -11 9 -15 11 -11 3 5 -9
4 -12 -3 -7 -6 3 -13 2 -16 -3 -4 -5 0 -11 7 -13 10 -2 10 -14 -4 -58 -16 -51
-17 -53 -24 -27 -4 15 -5 43 -3 62 2 19 0 35 -4 35 -15 0 -21 -54 -11 -92 9
-35 8 -43 -18 -81 -15 -23 -24 -43 -19 -45 6 -2 10 -19 10 -37 l0 -33 -66 -1
c-55 0 -74 -5 -104 -26 -54 -37 -69 -27 -58 38 11 58 27 96 28 64 0 -10 6 -17
13 -14 18 6 15 43 -3 39 -12 -3 -11 1 3 15 14 14 19 15 26 5 6 -10 11 -9 22 5
7 10 10 15 5 11 -5 -4 -18 -3 -28 3 -19 10 -19 12 11 30 39 24 41 43 3 36 -35
-7 -55 4 -46 27 9 24 42 40 58 27 9 -8 13 -7 13 4 0 8 -7 15 -14 15 -8 0 -12
4 -8 9 3 5 1 12 -5 16 -5 3 -10 13 -10 21 0 9 5 12 12 8 7 -5 9 -2 5 8 -4 12
-1 14 14 11 12 -3 18 -11 15 -19 -3 -7 0 -16 5 -20 6 -3 9 -14 6 -24 -2 -9 3
-22 13 -28 38 -23 27 -112 -15 -129 -8 -3 -12 -9 -9 -14 3 -5 -1 -9 -9 -9 -15
0 -12 -46 4 -56 5 -3 4 -15 -2 -27 -10 -21 -9 -21 5 -3 10 12 12 23 6 31 -12
14 -7 48 8 53 7 2 12 10 12 18 0 8 4 14 8 14 5 0 14 11 20 25 6 14 16 25 21
25 12 0 4 -24 -18 -59 -8 -13 -16 -29 -17 -35 -1 -6 -5 -28 -9 -48 -6 -32 -4
-38 9 -38 19 0 23 10 29 60 2 19 11 51 20 72 15 32 15 42 3 82 -17 56 -16 51
-16 79 -1 19 -2 20 -11 5 -5 -9 -7 -27 -5 -40 3 -13 8 -34 11 -48 4 -21 3 -20
-9 5 -8 17 -12 34 -8 39 3 5 0 6 -6 2 -7 -4 -10 6 -9 33 0 22 5 37 9 35 4 -3
8 1 8 8 0 10 2 10 9 -1 9 -14 38 -18 171 -26 41 -3 94 -6 118 -8 42 -4 49 4
43 45 0 4 7 7 17 6 9 0 51 3 92 7 41 3 77 7 80 7 27 2 36 -19 17 -38 -4 -4 -7
-16 -7 -28 0 -25 20 -8 24 20 2 14 10 18 29 16 14 -1 29 3 33 9 4 8 0 9 -15 4
-15 -4 -21 -3 -19 7 2 7 -4 12 -13 10 -9 -1 -19 4 -22 12 -3 8 -22 19 -41 26
-21 7 -33 16 -30 22 4 6 0 16 -8 22 -8 6 -18 20 -22 31 -7 19 -8 19 -17 2 -12
-21 -29 -22 -29 -1 0 8 4 13 8 10 5 -3 22 11 38 31 49 62 104 111 144 129 22
10 41 23 44 30 6 16 -40 27 -79 20 -22 -4 -25 -2 -17 6 15 15 16 42 2 33 -27
-17 -26 11 2 63 52 95 66 126 69 157 l4 30 -65 -1 c-98 -2 -112 -6 -148 -41
-18 -18 -34 -33 -36 -33 -2 0 -6 21 -10 46 -3 26 -28 91 -56 145 -27 55 -50
101 -50 104 0 3 -3 4 -7 3 -5 -2 -7 -7 -5 -12 2 -5 -7 -6 -20 -2 -13 3 -26 6
-29 6 -11 0 -27 53 -33 108 -6 58 -13 75 -27 67 -5 -4 -5 -13 1 -25 18 -33
-25 -31 -81 4 -33 22 -59 31 -75 28 -25 -5 -28 -12 -39 -94 -3 -25 -13 -52
-22 -60 -9 -7 -25 -32 -35 -56 -19 -43 -19 -43 1 -75 11 -18 21 -26 21 -19 0
7 5 10 10 7 6 -4 9 -1 8 7 -2 9 11 14 42 16 38 2 50 -2 75 -25 16 -15 31 -27
33 -26 13 10 32 33 32 41 0 11 96 62 117 62 23 0 -8 -38 -44 -55 -36 -17 -67
-56 -77 -98 l-7 -29 -38 42 c-37 40 -61 46 -61 15 0 -10 -10 -12 -40 -8 -26 4
-40 2 -40 -6 0 -6 -9 -2 -20 9 -11 11 -26 17 -34 14 -22 -8 -35 56 -27 133 0
6 17 20 36 32 42 24 45 49 10 87 -19 20 -37 28 -73 31 -26 3 -52 10 -58 16 -7
7 -15 36 -18 66 -4 29 -14 65 -24 80 -18 26 -19 38 -7 149 7 56 5 69 -15 105
-13 23 -33 53 -46 67 -13 14 -30 44 -38 68 -13 37 -12 44 10 41 3 0 11 7 18
17 7 9 18 14 24 10 7 -4 12 -2 12 4 0 27 25 0 26 -27 0 -32 13 -48 53 -71 33
-19 39 -6 7 19 -48 38 -56 49 -47 67 5 9 14 30 20 46 9 21 17 27 31 23 11 -3
19 -2 18 2 -1 3 3 17 9 31 6 15 8 41 3 65 -8 39 -8 39 -9 -16 -1 -53 -3 -57
-27 -63 -15 -4 -28 -5 -30 -3 -2 2 5 20 15 40 10 20 16 37 12 37 -4 0 -13 17
-20 38 -22 61 -61 139 -75 151 -8 7 -36 13 -62 16 -27 2 -51 4 -54 5 -3 1 -18
1 -33 0 -26 -2 -28 0 -17 20 7 13 8 26 3 31 -5 5 -9 0 -10 -13 -3 -32 -14 -38
-89 -44 -186 -14 -204 -11 -196 31 2 14 9 28 15 32 6 4 7 1 2 -7 -6 -10 -4
-11 6 -4 8 4 20 9 28 11 19 2 28 19 25 46 -1 12 -3 50 -3 85 l-1 62 -120 0
c-81 0 -120 -4 -120 -11 0 -6 -7 -8 -16 -5 -8 3 -23 -2 -32 -11 -16 -16 -16
-16 1 -10 12 4 17 1 18 -11 0 -14 2 -14 10 3 l9 20 -2 -20 c-2 -11 2 -27 7
-35 8 -13 7 -13 -8 -1 -9 7 -17 10 -17 5 0 -5 -4 -3 -8 4 -5 7 -8 -8 -8 -34 1
-33 -3 -49 -14 -52 -13 -5 -13 -3 0 13 9 11 10 16 3 11 -8 -4 -13 -2 -13 8 0
8 6 16 13 19 6 2 0 8 -15 12 -16 4 -26 11 -23 15 3 5 1 20 -5 35 -8 22 -13 24
-30 15 -11 -6 -20 -21 -20 -34 0 -15 -7 -26 -19 -29 -13 -3 -18 -12 -16 -32 3
-19 0 -25 -11 -21 -8 3 -14 1 -14 -4 0 -16 -17 -12 -24 6 -3 8 -2 12 3 9 5 -3
12 -1 16 5 3 5 2 10 -4 10 -5 0 -9 9 -8 20 1 11 5 20 10 20 5 0 4 6 -2 13 -6
8 -8 17 -4 20 3 4 1 7 -5 7 -6 0 -9 9 -7 20 2 11 -1 20 -7 20 -7 0 -7 4 0 13
5 6 12 30 15 52 3 22 3 34 1 28 -6 -15 -34 -18 -34 -4 0 5 5 11 12 13 9 3 9 6
0 12 -6 3 -20 -2 -31 -13 -11 -11 -23 -16 -27 -13 -4 4 -4 2 0 -5 4 -7 13 -10
20 -7 8 3 17 1 21 -5 3 -6 1 -11 -6 -11 -7 0 -9 -3 -6 -7 4 -3 2 -12 -4 -20
-9 -9 -8 -13 0 -13 6 0 11 -5 11 -11 0 -5 -5 -7 -12 -3 -7 5 -8 3 -3 -6 11
-18 15 -81 5 -75 -9 6 -5 -28 5 -45 3 -6 0 -10 -7 -10 -10 0 -10 -2 0 -9 16
-10 21 -79 7 -89 -21 -15 -31 -50 -31 -104 1 -35 -2 -54 -8 -48 -5 5 -8 68 -7
140 l2 131 -30 34 c-29 34 -30 37 -28 130 1 52 -1 95 -5 95 -5 0 -8 -3 -9 -7z
m481 -203 c0 -10 -5 -22 -11 -25 -16 -11 -59 -13 -59 -4 0 5 7 9 15 9 8 0 15
9 15 19 0 19 18 32 33 24 4 -2 7 -13 7 -23z m115 -2 c-1 -13 -3 -26 -4 -29 0
-4 -12 -6 -26 -6 -31 0 -38 28 -10 44 30 18 43 15 40 -9z m-325 -67 c0 7 9 2
20 -11 22 -25 26 -35 10 -25 -6 4 -22 8 -35 11 -23 4 -25 1 -26 -36 -2 -71 -6
-76 -34 -47 -11 11 -13 16 -5 12 12 -7 12 -5 -1 11 -17 20 -22 54 -7 54 5 0 8
-8 6 -17 -3 -20 24 -25 28 -5 1 7 0 8 -3 2 -2 -5 -9 -10 -15 -10 -5 0 0 12 11
26 11 15 18 31 15 36 -4 6 3 5 15 -1 16 -9 21 -9 21 0z m-751 -657 c-10 -12
-14 -12 -20 -2 -4 7 -3 16 4 20 18 11 29 -2 16 -18z m1746 -924 c5 -71 10 -89
36 -127 32 -46 122 -123 144 -123 7 0 18 -7 25 -15 11 -13 8 -19 -14 -40 -15
-13 -27 -27 -27 -30 0 -2 -6 -20 -14 -39 -8 -20 -15 -40 -15 -45 0 -19 -55 5
-56 25 -1 10 -3 26 -5 34 -2 8 2 15 9 16 6 1 16 2 20 3 5 0 7 16 6 34 -1 17
-3 38 -3 45 -1 6 -8 12 -16 12 -12 0 -15 -10 -13 -40 2 -40 -6 -59 -19 -46 -4
3 -7 28 -7 55 -1 27 -4 47 -9 44 -4 -2 -5 -8 -2 -13 3 -5 1 -11 -5 -15 -16
-10 -12 -58 10 -100 11 -22 20 -43 20 -47 0 -4 -17 -19 -37 -33 -28 -19 -38
-32 -38 -53 0 -17 -5 -27 -15 -27 -19 0 -29 -33 -19 -62 6 -15 2 -28 -12 -44
-24 -28 -24 -34 2 -53 12 -8 18 -19 14 -25 -12 -20 -30 -11 -49 24 -11 19 -24
35 -30 35 -6 0 -6 4 2 12 13 13 -2 48 -22 48 -28 0 -10 29 25 40 21 7 52 26
69 41 l31 29 -23 22 c-33 32 -80 116 -72 129 3 6 8 62 9 124 3 129 7 144 46
197 15 22 31 53 34 69 4 17 9 29 11 26 2 -2 6 -41 9 -87z m-297 -506 c9 -18 8
-24 -6 -35 -9 -7 -14 -9 -10 -5 4 5 3 15 -3 22 -6 8 -8 21 -5 30 7 19 9 18 24
-12z m52 -74 c28 0 36 -21 15 -37 -11 -7 -15 -13 -9 -14 5 -1 -7 -5 -26 -9
-45 -11 -53 -5 -47 36 4 25 2 33 -6 28 -7 -3 -4 1 7 10 16 13 20 13 33 0 8 -7
23 -14 33 -14z m42 -89 c16 -14 16 -15 -1 -27 -22 -16 -26 -100 -5 -108 21 -8
36 21 37 68 l1 45 23 -25 c25 -27 25 -26 28 -102 l3 -53 -37 3 c-30 2 -35 7
-33 23 2 16 1 17 -7 5 -5 -8 -7 -18 -5 -22 3 -4 1 -8 -5 -8 -6 0 -19 19 -31
43 -11 23 -18 34 -15 24 3 -13 0 -17 -13 -15 -23 4 -42 31 -42 62 0 14 0 38 0
52 0 15 4 32 9 38 13 16 73 14 93 -3z m-2442 -273 c0 -5 5 -6 10 -3 6 3 10 4
10 1 0 -15 -20 -13 -36 5 -16 18 -16 19 -1 13 9 -3 17 -10 17 -16z m474 -320
c-3 -5 -1 -8 3 -8 14 0 13 -38 -1 -43 -21 -8 -41 9 -29 25 6 7 8 27 6 43 -4
28 -3 29 11 10 8 -11 12 -23 10 -27z m1859 -49 c33 -1 47 -5 47 -15 0 -8 5
-14 12 -14 6 0 8 -3 5 -6 -3 -4 -2 -16 4 -27 8 -13 8 -17 1 -13 -15 9 -6 -34
9 -48 9 -8 10 -8 5 2 -4 6 -2 12 4 12 6 0 13 -7 16 -15 4 -8 12 -15 19 -15 6
0 20 -9 30 -20 10 -11 31 -24 47 -28 16 -4 29 -11 29 -15 -1 -4 -1 -16 -1 -27
0 -17 -6 -19 -37 -16 -21 3 -50 5 -65 5 -23 1 -26 5 -22 25 6 34 -10 40 -43
19 l-27 -18 23 32 c27 36 21 59 -10 43 -15 -9 -26 -6 -49 10 -17 12 -27 27
-24 35 3 7 1 22 -5 32 -6 10 -11 14 -11 8 -1 -5 -3 -23 -4 -40 -1 -16 -4 -37
-7 -45 -2 -9 3 -14 15 -15 27 0 31 -22 7 -30 -11 -3 -20 -11 -18 -17 1 -6 -4
-13 -10 -15 -7 -3 -13 0 -13 7 0 6 -4 9 -9 6 -10 -7 -24 31 -22 59 7 75 -3
105 -34 105 -14 0 -25 5 -25 10 0 6 -5 9 -12 8 -7 -2 -12 6 -12 17 0 11 5 19
12 18 7 -2 11 0 11 5 -3 19 5 20 59 1 31 -11 78 -20 105 -20z m515 -66 c0 -15
-9 -37 -19 -49 -11 -11 -22 -31 -24 -44 -3 -13 -8 -26 -13 -29 -5 -3 -11 -14
-15 -23 -3 -9 -14 -15 -24 -14 -10 2 -29 -1 -42 -6 -37 -13 -43 2 -26 68 28
109 42 128 105 137 38 5 57 -9 58 -40z m217 -225 c-16 -163 -18 -169 -31 -164
-8 3 -14 0 -14 -6 0 -6 -8 -16 -17 -23 -15 -11 -15 -15 -4 -29 13 -15 15 -15
27 1 12 16 13 15 14 -14 0 -29 -3 -33 -27 -33 -16 0 -23 -4 -18 -8 16 -11 12
-25 -12 -49 -25 -25 -26 -23 -23 19 4 65 -29 95 -55 50 -15 -27 -16 -27 -11
18 3 25 5 59 5 76 1 16 9 39 19 50 18 20 27 58 11 48 -5 -3 -9 2 -9 11 0 12 4
14 17 6 18 -9 20 -26 22 -143 1 -21 4 -38 9 -38 9 0 7 148 -3 172 -5 12 5 24
37 45 24 15 47 33 51 40 14 22 16 15 12 -29z m-1527 15 c6 -19 -28 -29 -39
-12 -13 21 -11 26 13 25 12 0 23 -7 26 -13z m1088 -95 c-2 -29 2 -59 7 -65 5
-7 7 -13 3 -13 -3 0 3 -9 14 -20 12 -12 26 -20 33 -19 7 1 23 1 37 0 25 -2 25
-2 5 -17 -11 -9 -32 -20 -47 -26 -15 -5 -25 -15 -22 -21 4 -14 -12 -44 -20
-36 -11 10 -24 104 -21 144 2 22 0 45 -4 50 -6 9 -7 28 -2 63 0 6 5 12 10 12
5 0 8 -24 7 -52z m277 12 c-3 -11 -11 -20 -19 -20 -7 0 -15 -17 -19 -42 -3
-24 -8 -52 -10 -63 -2 -11 -4 -25 -4 -32 -1 -18 -98 -13 -98 5 0 8 22 28 49
45 26 16 49 36 49 43 1 8 3 19 4 24 1 6 3 22 4 36 1 19 5 25 16 20 8 -3 15 -1
15 5 0 6 4 8 9 5 5 -3 7 -15 4 -26z m-1716 -93 c12 -19 12 -36 1 -44 -7 -3 -8
-1 -4 5 5 8 -2 12 -18 12 -14 0 -26 5 -26 11 0 5 -4 8 -9 5 -11 -7 -9 13 2 32
9 13 40 2 54 -21z m-503 -172 c3 -8 1 -15 -5 -15 -6 0 -7 -4 -4 -10 3 -5 -1
-10 -9 -10 -9 0 -19 0 -23 0 -11 0 -11 23 0 38 13 17 34 15 41 -3z m149 -15
c-4 -16 -8 -18 -19 -9 -16 13 -19 23 -4 14 6 -3 10 -1 10 4 0 6 4 11 9 11 5 0
7 -9 4 -20z m2077 -104 c0 -3 -4 -8 -10 -11 -5 -3 -10 -1 -10 4 0 6 5 11 10
11 6 0 10 -2 10 -4z"/>
<path d="M3645 2448 c-10 -26 -2 -52 18 -56 21 -4 23 26 3 54 -13 17 -15 18
-21 2z"/>
<path d="M3361 1221 c-22 -14 -4 -33 20 -21 11 6 17 15 14 21 -8 11 -16 11
-34 0z"/>
<path d="M4010 960 c0 -5 9 -10 21 -10 11 0 17 5 14 10 -3 6 -13 10 -21 10 -8
0 -14 -4 -14 -10z"/>
<path d="M1089 4465 c-33 -18 -44 -44 -22 -52 17 -7 43 20 43 45 0 7 5 10 12
6 7 -4 8 -3 4 4 -9 14 -5 15 -37 -3z"/>
<path d="M2438 4459 c-10 -5 -14 -17 -11 -29 3 -12 0 -20 -7 -20 -13 0 -4 -39
13 -55 7 -7 7 -5 2 5 -7 12 -6 13 6 3 9 -8 20 -9 29 -3 8 6 11 10 6 10 -5 0
-3 7 4 15 10 11 9 18 -4 30 -19 19 -20 32 -4 37 8 3 7 6 -3 10 -8 3 -22 2 -31
-3z"/>
<path d="M1152 4438 c3 -7 15 -14 29 -16 23 -2 23 -2 5 13 -24 18 -39 20 -34
3z"/>
<path d="M1670 4420 c-8 -5 -17 -7 -21 -4 -4 2 -10 -8 -13 -21 -9 -36 17 -61
47 -48 22 10 35 53 17 53 -5 0 -10 7 -12 15 -2 10 -7 12 -18 5z"/>
<path d="M3128 4393 c-2 -10 -12 -18 -22 -18 -11 0 -21 -6 -23 -12 -3 -7 3
-13 12 -13 12 0 16 -6 13 -18 -6 -21 33 -53 40 -33 5 16 29 14 36 -4 4 -13 10
-14 26 -5 13 7 20 7 20 0 0 -5 4 -10 8 -10 5 0 9 7 9 14 0 8 -3 15 -6 14 -3 0
-16 3 -28 7 -28 9 -36 30 -17 45 17 15 19 34 2 27 -48 -19 -48 -19 -48 2 0 25
-17 28 -22 4z"/>
<path d="M3450 4360 c0 -5 7 -10 16 -10 8 0 12 5 9 10 -3 6 -10 10 -16 10 -5
0 -9 -4 -9 -10z"/>
<path d="M860 4350 c-41 -10 -36 -36 10 -60 58 -30 75 -22 53 24 -19 40 -28
45 -63 36z"/>
<path d="M1850 4340 c0 -5 4 -10 9 -10 6 0 13 5 16 10 3 6 -1 10 -9 10 -9 0
-16 -4 -16 -10z"/>
<path d="M3286 4334 c-7 -17 12 -48 31 -51 11 -3 31 43 22 51 -16 14 -47 15
-53 0z"/>
<path d="M4175 4283 c14 -16 28 -39 32 -53 9 -40 17 -47 23 -20 3 15 -2 40
-12 62 -14 29 -24 38 -44 38 l-25 0 26 -27z"/>
<path d="M1192 4259 c-10 -15 -9 -17 3 -13 13 5 13 2 0 -29 -9 -23 -11 -38 -5
-42 6 -3 10 -3 10 0 0 3 10 -3 22 -14 31 -30 52 -10 45 42 -9 63 -51 95 -75
56z"/>
<path d="M3956 4271 c-4 -5 -3 -16 0 -25 3 -9 1 -16 -5 -16 -18 0 -14 -87 5
-94 21 -8 20 -8 36 7 8 6 22 17 31 22 10 6 27 24 37 41 20 30 20 31 -1 52 -21
23 -92 31 -103 13z"/>
<path d="M1605 4261 c-6 -11 13 -26 22 -17 4 3 0 6 -8 6 -11 0 -11 2 1 10 9 6
10 10 3 10 -6 0 -14 -4 -18 -9z"/>
<path d="M3290 4250 c0 -11 3 -20 8 -21 4 0 14 -2 23 -4 12 -2 15 3 11 21 -6
30 -42 34 -42 4z"/>
<path d="M3644 4250 c-25 -10 -38 -59 -18 -67 8 -3 11 -10 7 -16 -11 -17 50 3
63 21 16 23 14 34 -10 53 -14 11 -28 14 -42 9z"/>
<path d="M1152 4228 c-15 -19 -24 -75 -14 -82 6 -3 10 9 10 29 0 20 6 42 12
50 7 8 10 15 7 15 -2 0 -9 -6 -15 -12z"/>
<path d="M2354 4228 c-4 -7 -3 -8 4 -4 7 4 12 3 12 -3 0 -5 3 -18 7 -28 6 -16
5 -16 -10 -5 -14 12 -15 11 -4 -12 7 -14 15 -26 19 -26 13 0 14 36 1 63 -15
30 -19 32 -29 15z"/>
<path d="M2210 4210 c0 -11 7 -20 15 -20 17 0 18 2 9 24 -9 23 -24 20 -24 -4z"/>
<path d="M1813 4204 c-7 -18 17 -38 31 -24 11 11 1 40 -14 40 -6 0 -13 -7 -17
-16z"/>
<path d="M1663 4177 c-13 -22 -10 -45 6 -42 9 2 19 4 24 4 4 1 7 10 7 20 0 22
-26 35 -37 18z"/>
<path d="M1953 4175 c0 -8 4 -12 9 -9 5 3 6 10 3 15 -9 13 -12 11 -12 -6z"/>
<path d="M2269 4133 c-1 -5 -1 -11 0 -15 0 -5 -3 -8 -9 -8 -5 0 -10 -8 -10
-18 0 -10 6 -19 13 -19 8 0 13 13 13 34 0 30 -4 44 -7 26z"/>
<path d="M1145 4090 c7 -67 -36 -148 -87 -165 -21 -7 -39 -11 -39 -9 -3 8 -7
24 -8 33 0 5 -13 8 -28 6 -16 -2 -31 -4 -36 -4 -4 -1 -15 -17 -24 -37 -17 -35
-17 -36 5 -55 17 -13 32 -17 55 -12 44 8 67 21 67 38 0 8 12 22 28 32 38 23
61 54 54 72 -3 9 -1 12 6 7 7 -4 12 -13 12 -21 0 -21 16 -27 30 -10 10 12 8
16 -14 24 -23 9 -24 13 -15 41 8 21 8 41 1 68 l-11 37 4 -45z"/>
<path d="M3542 4118 c-7 -7 -12 -21 -12 -32 0 -11 -10 -30 -22 -43 l-22 -23
31 -30 c17 -17 45 -35 63 -41 28 -10 35 -9 56 12 12 13 30 30 39 37 20 17 19
28 -4 51 -11 11 -17 22 -14 25 3 3 -3 9 -13 12 -10 4 -27 15 -37 26 -20 21
-48 23 -65 6z"/>
<path d="M4086 4072 c-9 -14 9 -31 32 -29 32 2 30 37 -2 37 -14 0 -27 -4 -30
-8z"/>
<path d="M3790 4014 c0 -8 5 -12 10 -9 6 3 10 10 10 16 0 5 -4 9 -10 9 -5 0
-10 -7 -10 -16z"/>
<path d="M3791 3983 c0 -5 4 -17 9 -28 8 -18 9 -17 9 8 1 15 -3 27 -9 27 -5 0
-10 -3 -9 -7z"/>
<path d="M3807 3909 c4 -13 8 -18 11 -10 2 7 -1 18 -6 23 -8 8 -9 4 -5 -13z"/>
<path d="M3623 3899 c-2 -23 3 -25 10 -4 4 8 3 16 -1 19 -4 3 -9 -4 -9 -15z"/>
<path d="M4242 3874 c-7 -8 -9 -14 -5 -14 4 0 1 -4 -7 -10 -12 -7 -12 -12 4
-29 11 -12 23 -21 27 -21 14 0 50 45 39 48 -5 2 -10 11 -10 20 0 8 -3 12 -7 9
-3 -4 -11 -3 -17 2 -7 6 -16 4 -24 -5z"/>
<path d="M4158 3765 c-3 -3 -81 -14 -109 -14 -8 -1 -25 -11 -38 -22 -21 -20
-22 -23 -7 -38 14 -13 20 -13 37 -3 23 15 41 8 33 -12 -7 -18 27 -16 42 3 6 8
17 11 25 9 21 -8 51 11 45 28 -3 8 -1 14 4 14 13 0 1 27 -15 34 -7 2 -15 3
-17 1z m-63 -55 c3 -6 -1 -7 -9 -4 -18 7 -21 14 -7 14 6 0 13 -4 16 -10z"/>
<path d="M3571 3743 c-18 -15 -22 -28 -21 -78 0 -33 1 -72 0 -88 0 -16 6 -30
15 -33 8 -4 15 -17 15 -31 0 -16 7 -27 19 -30 11 -3 22 -11 25 -19 3 -8 13
-14 21 -14 9 0 37 -16 62 -35 38 -29 49 -33 66 -23 16 8 23 7 32 -6 17 -22 22
-20 34 14 5 17 14 30 18 29 45 -8 91 27 111 82 20 58 16 68 -33 89 -34 14 -49
28 -56 50 -6 16 -18 30 -26 30 -8 0 -32 15 -54 33 -39 34 -66 39 -116 23 -13
-4 -34 -1 -52 8 -37 20 -34 20 -60 -1z"/>
<path d="M3510 3739 c0 -6 -7 -9 -15 -5 -8 3 -15 1 -15 -4 0 -6 4 -10 9 -10 5
0 16 -3 25 -6 11 -4 14 0 13 15 -1 21 -17 30 -17 10z"/>
<path d="M744 3692 c-31 -19 -52 -121 -38 -185 5 -23 9 -26 34 -22 16 3 40 9
53 14 32 12 38 5 25 -25 -16 -34 9 -61 40 -45 27 15 32 14 32 -4 0 -8 7 -15
15 -15 9 0 27 -7 40 -16 17 -11 25 -12 25 -5 0 7 4 10 9 7 12 -8 132 32 150
49 18 17 7 47 -16 44 -44 -4 -59 2 -71 31 -8 17 -17 28 -22 25 -5 -3 -15 2
-24 10 -22 23 -72 26 -91 5 -8 -9 -12 -20 -8 -23 3 -4 1 -7 -5 -7 -5 0 -17 -3
-26 -6 -9 -3 -16 -1 -16 6 0 6 5 8 10 5 6 -3 10 1 10 9 0 9 5 16 10 16 6 0 10
7 10 15 0 9 7 18 15 21 25 10 38 43 24 60 -29 35 -151 59 -185 36z"/>
<path d="M4050 3670 c0 -11 2 -20 4 -20 2 0 6 9 9 20 3 11 1 20 -4 20 -5 0 -9
-9 -9 -20z"/>
<path d="M4051 3601 c-1 -8 -9 -24 -18 -35 -16 -20 -16 -20 6 0 13 12 21 28
18 35 -4 11 -6 11 -6 0z"/>
<path d="M4181 3524 c0 -11 3 -14 6 -6 3 7 2 16 -1 19 -3 4 -6 -2 -5 -13z"/>
<path d="M4140 3483 c0 -17 8 -16 26 1 12 13 12 15 -6 13 -11 -1 -20 -7 -20
-14z"/>
<path d="M4388 3493 c7 -3 16 -2 19 1 4 3 -2 6 -13 5 -11 0 -14 -3 -6 -6z"/>
<path d="M3944 3426 c-12 -12 -32 -28 -45 -37 -13 -10 -22 -19 -19 -22 3 -3
25 12 50 33 25 21 43 40 40 42 -3 2 -15 -5 -26 -16z"/>
<path d="M4136 3442 c-3 -5 1 -9 9 -9 8 0 12 4 9 9 -3 4 -7 8 -9 8 -2 0 -6 -4
-9 -8z"/>
<path d="M4058 3393 c7 -3 16 -2 19 1 4 3 -2 6 -13 5 -11 0 -14 -3 -6 -6z"/>
<path d="M803 3344 c-23 -9 -45 -24 -48 -34 -3 -10 -1 -47 5 -82 13 -85 13
-88 -7 -81 -14 5 -15 3 -7 -6 9 -10 17 -10 33 -2 28 15 184 8 189 -8 2 -6 -1
-18 -8 -26 -9 -11 -7 -13 7 -10 10 1 17 8 16 14 -2 6 1 11 5 11 9 0 10 9 15
92 2 34 -2 66 -9 80 -7 12 -13 19 -14 13 0 -5 -7 0 -15 12 -9 13 -22 20 -30
16 -9 -3 -22 0 -30 7 -8 7 -15 9 -15 4 0 -4 -5 -3 -12 4 -15 15 -22 14 -75 -4z"/>
<path d="M3677 3348 c-10 -5 -28 -9 -40 -8 -43 4 -56 0 -62 -21 -13 -39 58
-87 137 -92 20 -2 40 -6 44 -10 11 -10 34 13 34 34 0 13 15 26 44 40 39 18 70
59 45 59 -5 0 -9 -7 -9 -15 0 -15 -14 -24 -43 -29 -8 -1 -22 -10 -32 -19 -17
-17 -19 -16 -41 17 -30 44 -54 58 -77 44z"/>
<path d="M3973 3325 c-41 -18 -54 -30 -59 -52 -3 -15 -8 -36 -11 -46 -5 -18
41 -88 55 -85 4 1 19 -4 33 -10 32 -13 45 -11 86 14 31 18 63 69 63 100 0 19
-83 104 -101 103 -8 0 -37 -11 -66 -24z"/>
<path d="M705 3331 c-3 -5 -2 -12 3 -15 5 -3 9 1 9 9 0 17 -3 19 -12 6z"/>
<path d="M4197 3233 c-14 -13 -6 -33 12 -33 19 0 35 23 24 34 -8 8 -28 8 -36
-1z"/>
<path d="M663 3219 c-13 -4 -23 -12 -23 -16 1 -19 17 -32 35 -28 11 2 23 4 27
4 9 1 4 29 -8 40 -5 5 -19 5 -31 0z"/>
<path d="M527 3214 c-2 -3 -3 -13 0 -24 5 -19 34 -21 41 -2 3 11 -32 35 -41
26z"/>
<path d="M3803 3208 c10 -5 14 -14 10 -21 -4 -7 -1 -7 10 1 9 8 21 10 28 6 7
-4 10 -2 7 6 -2 7 -19 14 -38 15 -26 2 -30 1 -17 -7z"/>
<path d="M4269 3187 c-36 -24 -46 -61 -22 -85 7 -8 11 -17 9 -21 -3 -4 17 3
44 16 53 25 70 46 70 87 0 23 -4 26 -34 26 -18 0 -48 -10 -67 -23z"/>
<path d="M3830 3181 c0 -5 9 -11 21 -14 16 -4 18 -3 8 9 -13 16 -29 19 -29 5z"/>
<path d="M775 3110 c-9 -28 7 -44 35 -35 25 8 22 23 -7 42 -19 13 -22 12 -28
-7z"/>
<path d="M4188 3123 c-24 -6 -10 -33 17 -33 18 0 23 5 22 20 -1 20 -7 22 -39
13z"/>
<path d="M3930 3100 c0 -22 12 -32 25 -22 18 12 15 30 -5 35 -15 4 -20 0 -20
-13z"/>
<path d="M820 3060 c-9 -16 -7 -22 7 -27 10 -3 22 -8 27 -11 5 -3 6 1 2 9 -4
8 -1 7 6 -3 9 -11 19 -13 29 -7 9 4 25 7 36 5 14 -3 19 2 19 20 0 24 -9 25
-73 10 -16 -3 -23 0 -23 10 0 21 -18 17 -30 -6z"/>
<path d="M4003 3043 c-18 -7 -16 -23 2 -23 8 0 15 7 15 15 0 8 -1 15 -2 14 -2
0 -9 -3 -15 -6z"/>
<path d="M690 3005 c0 -20 5 -25 25 -25 29 0 45 28 24 41 -27 17 -49 10 -49
-16z"/>
<path d="M565 3010 c3 -5 11 -10 16 -10 6 0 7 5 4 10 -3 6 -11 10 -16 10 -6 0
-7 -4 -4 -10z"/>
<path d="M4135 3010 c-24 -4 -31 -11 -33 -34 -3 -23 5 -36 43 -72 45 -41 47
-45 36 -75 -6 -17 -8 -35 -5 -40 18 -30 51 20 34 51 -9 16 -7 28 5 53 9 18 19
54 22 80 l5 48 -39 -3 c-21 -2 -52 -5 -68 -8z"/>
<path d="M967 2986 c-12 -30 17 -35 33 -6 9 17 8 20 -9 20 -10 0 -21 -6 -24
-14z"/>
<path d="M841 2977 c-28 -10 -36 -20 -46 -54 -10 -34 -10 -47 2 -70 16 -34 70
-66 104 -62 13 2 35 -3 48 -10 32 -18 52 1 28 26 -21 24 -7 47 25 41 29 -5 52
14 36 30 -6 6 -17 8 -24 5 -8 -3 -17 5 -23 19 -5 13 -21 38 -36 56 -29 35 -56
39 -114 19z"/>
<path d="M695 2920 c-7 -12 2 -30 16 -30 12 0 12 27 0 35 -5 3 -12 1 -16 -5z"/>
<path d="M506 2870 c-13 -4 -16 -9 -8 -14 7 -4 19 -3 28 2 21 12 5 22 -20 12z"/>
<path d="M726 2827 c2 -11 9 -25 15 -31 9 -8 10 -7 6 6 -3 9 -1 19 6 22 9 3 8
5 -1 5 -7 1 -11 5 -8 9 3 5 -1 9 -9 9 -8 0 -12 -8 -9 -20z"/>
<path d="M1070 2824 c-8 -11 -23 -23 -33 -27 -13 -5 -17 -15 -15 -33 2 -20 -2
-28 -14 -30 -10 -1 -20 2 -24 7 -3 5 -10 7 -15 4 -5 -4 -9 0 -9 7 0 7 -9 19
-21 26 -12 8 -18 9 -14 3 10 -17 -40 -31 -111 -31 -69 0 -68 1 -65 -62 2 -23
-7 -53 -23 -84 -28 -52 -34 -100 -13 -107 6 -2 26 -1 44 3 47 11 80 1 117 -34
38 -37 56 -36 56 3 0 32 22 60 64 81 16 8 37 28 45 44 9 16 24 36 34 45 21 19
22 40 2 47 -12 5 -7 14 20 38 39 36 45 65 16 73 -11 3 -21 15 -23 27 l-3 21
-15 -21z"/>
<path d="M4423 2695 c-10 -10 -9 -16 1 -24 16 -13 42 11 31 29 -8 13 -17 12
-32 -5z"/>
<path d="M1092 2689 c2 -7 10 -15 17 -17 8 -3 12 1 9 9 -2 7 -10 15 -17 17 -8
3 -12 -1 -9 -9z"/>
<path d="M650 2672 c0 -10 8 -18 19 -19 18 -2 19 0 3 18 -20 23 -22 24 -22 1z"/>
<path d="M685 2630 c-3 -6 1 -7 9 -4 18 7 21 14 7 14 -6 0 -13 -4 -16 -10z"/>
<path d="M976 2431 c-36 -38 -37 -40 -18 -52 12 -7 17 -19 15 -30 -3 -11 1
-20 8 -22 8 -3 31 -10 53 -17 37 -12 39 -11 68 20 18 21 28 40 25 51 -3 11 -1
19 4 19 15 0 10 30 -6 36 -8 4 -15 12 -15 20 0 8 -10 14 -25 14 -14 0 -25 -5
-25 -10 0 -7 -6 -7 -19 0 -25 13 -20 15 -65 -29z m71 -57 c-3 -3 -12 -4 -19
-1 -8 3 -5 6 6 6 11 1 17 -2 13 -5z"/>
<path d="M701 2341 c-11 -7 -10 -11 7 -20 15 -8 21 -7 25 3 9 24 -7 32 -32 17z"/>
<path d="M740 2275 c-12 -14 -11 -18 0 -25 10 -6 18 -4 23 6 13 23 -7 39 -23
19z"/>
<path d="M897 2276 c-7 -18 1 -26 25 -26 13 0 18 6 16 17 -4 22 -34 29 -41 9z"/>
<path d="M4450 2270 c0 -5 5 -10 11 -10 5 0 7 5 4 10 -3 6 -8 10 -11 10 -2 0
-4 -4 -4 -10z"/>
<path d="M1048 2259 c-10 -5 -18 -17 -18 -24 0 -17 27 -20 49 -6 8 5 11 16 8
25 -7 18 -15 19 -39 5z"/>
<path d="M786 2126 c-15 -21 -22 -37 -16 -41 5 -3 10 -1 10 5 0 7 9 25 21 41
29 41 17 36 -15 -5z"/>
<path d="M4006 2040 c-11 -19 -22 -28 -29 -23 -22 14 -36 11 -50 -11 -14 -20
-13 -22 6 -24 12 0 23 -5 25 -10 4 -12 75 3 80 17 2 5 11 7 20 4 15 -6 15 -5
3 10 -12 15 -12 17 1 12 9 -4 15 0 15 8 0 8 -7 14 -16 12 -9 -1 -21 6 -26 16
-10 18 -12 17 -29 -11z"/>
<path d="M480 1965 c0 -8 9 -15 19 -15 26 0 35 16 15 24 -25 10 -34 7 -34 -9z"/>
<path d="M595 1833 c-28 -7 -47 -24 -41 -38 2 -6 -3 -26 -11 -43 -19 -40 -13
-57 32 -83 19 -12 35 -25 35 -29 0 -14 29 -5 52 17 13 11 33 26 46 32 28 15
30 57 3 66 -12 4 -18 12 -14 21 3 7 0 15 -6 15 -6 1 -15 2 -20 3 -6 0 -19 11
-31 24 -11 12 -22 21 -23 21 -1 -1 -11 -4 -22 -6z"/>
<path d="M1130 1790 c-21 -17 -23 -21 -10 -30 8 -5 20 -10 26 -10 7 0 15 -8
18 -17 6 -14 10 -11 27 16 11 19 18 40 15 47 -8 20 -47 17 -76 -6z"/>
<path d="M1252 1780 c0 -14 2 -19 5 -12 2 6 2 18 0 25 -3 6 -5 1 -5 -13z"/>
<path d="M1182 1685 c-8 -9 -9 -15 -2 -15 7 0 8 -6 0 -19 -6 -13 -7 -22 0 -26
5 -3 7 -12 4 -19 -3 -7 2 -19 11 -26 8 -7 15 -11 16 -9 7 34 6 38 -4 32 -7 -4
-6 1 2 10 9 12 10 17 2 17 -7 0 -9 5 -6 10 4 6 1 17 -5 25 -9 11 -9 15 -1 15
6 0 11 5 11 10 0 14 -13 12 -28 -5z"/>
<path d="M4395 1670 c-3 -5 -3 -16 1 -22 5 -9 2 -9 -9 1 -15 12 -17 11 -17 -3
0 -10 -4 -14 -10 -11 -5 3 -10 1 -10 -5 0 -7 8 -9 20 -5 14 4 20 2 20 -8 0 -8
7 -20 16 -28 13 -10 19 -8 39 13 13 14 22 34 21 44 -3 23 -37 35 -55 20 -11
-8 -13 -8 -7 2 4 6 5 12 2 12 -3 0 -8 -4 -11 -10z"/>
<path d="M773 1628 c-28 -14 -29 -24 -3 -40 27 -17 25 -38 -3 -38 -30 0 -40
-10 -26 -27 15 -17 29 -17 29 0 0 8 7 14 15 14 11 0 12 -4 4 -14 -9 -10 -8
-13 2 -13 12 0 12 -2 1 -9 -11 -6 -10 -10 4 -15 10 -4 15 -4 11 0 -4 4 1 16
10 27 10 11 12 17 6 13 -23 -13 -19 40 4 66 30 34 -7 58 -54 36z"/>
<path d="M641 1586 c-9 -10 -8 -15 2 -19 8 -3 13 3 14 14 2 23 -1 24 -16 5z"/>
<path d="M512 1577 c9 -7 18 -24 20 -37 3 -28 38 -41 38 -15 0 20 -28 50 -55
58 -18 6 -18 6 -3 -6z"/>
<path d="M576 1582 c-3 -5 1 -9 9 -9 8 0 12 4 9 9 -3 4 -7 8 -9 8 -2 0 -6 -4
-9 -8z"/>
<path d="M4294 1474 c3 -8 0 -11 -10 -7 -9 3 -14 -2 -14 -16 0 -26 18 -27 37
-3 8 9 12 12 10 7 -3 -6 2 -21 12 -34 13 -17 18 -19 18 -7 0 8 -7 18 -15 21
-12 4 -12 8 -1 21 10 12 10 15 -2 12 -8 -2 -13 2 -12 8 1 6 -5 11 -13 11 -8 0
-13 -6 -10 -13z"/>
<path d="M4474 1483 c4 -7 2 -13 -4 -13 -6 0 -8 -4 -5 -10 3 -5 10 -10 15 -10
10 0 7 27 -5 37 -4 4 -5 2 -1 -4z"/>
<path d="M654 1434 c-18 -20 -32 -40 -31 -43 1 -3 -11 -18 -26 -34 -16 -15
-27 -35 -25 -44 4 -22 102 -62 154 -63 81 0 84 49 12 198 -16 32 -46 27 -84
-14z"/>
<path d="M4466 1428 c3 -4 -6 -8 -20 -8 -14 0 -26 -5 -26 -11 0 -6 -9 -9 -19
-6 -14 3 -18 1 -14 -11 4 -8 -1 -20 -10 -27 -9 -6 -17 -28 -19 -48 -1 -20 -8
-39 -16 -42 -8 -3 -10 -10 -6 -17 8 -14 -26 10 -38 26 -14 20 -57 15 -72 -9
-21 -33 -21 -72 2 -79 9 -2 27 -7 39 -11 31 -9 80 42 74 78 0 4 6 7 14 7 8 0
15 -9 15 -20 0 -11 5 -20 10 -20 6 0 8 13 4 33 -6 31 -6 37 -2 72 2 21 23 12
22 -8 -1 -9 2 -15 6 -12 5 3 10 1 12 -5 2 -6 17 -3 38 8 41 21 63 78 36 98 -9
6 -14 13 -11 16 3 2 -2 5 -10 5 -8 0 -12 -4 -9 -9z"/>
<path d="M986 1378 c18 -32 50 -58 71 -58 29 0 30 23 1 50 -24 22 -84 29 -72
8z"/>
<path d="M4146 1351 c-3 -5 1 -14 9 -21 10 -9 15 -9 15 -1 0 6 -5 11 -11 11
-5 0 -7 5 -4 10 3 6 4 10 1 10 -3 0 -7 -4 -10 -9z"/>
<path d="M4155 1300 c-3 -5 -1 -10 4 -10 6 0 11 5 11 10 0 6 -2 10 -4 10 -3 0
-8 -4 -11 -10z"/>
<path d="M538 1166 c-15 -11 -15 -16 -4 -31 7 -10 23 -18 37 -19 13 0 24 -7
23 -13 -1 -7 -2 -28 -3 -45 -2 -18 -5 -27 -8 -20 -2 7 -14 17 -25 23 -16 9
-19 8 -13 -2 6 -9 3 -10 -9 -6 -13 5 -17 3 -13 -7 4 -10 1 -13 -8 -9 -8 3 -12
10 -8 17 3 6 2 8 -2 3 -13 -11 -17 -47 -5 -47 5 0 7 -6 4 -13 -3 -8 2 -19 9
-26 12 -9 19 -8 33 6 10 10 32 18 51 18 30 0 44 -9 25 -17 -17 -7 -52 -67 -46
-81 7 -19 47 -27 71 -14 23 13 43 39 37 49 -3 5 0 8 5 8 6 0 11 4 11 8 0 15
-37 52 -44 45 -3 -3 -6 5 -6 18 0 13 -7 33 -15 43 -8 11 -13 28 -9 38 3 12 0
18 -9 18 -8 0 -20 7 -27 15 -10 12 -10 15 0 15 7 0 3 9 -10 20 -13 11 -23 20
-24 20 -1 0 -9 -7 -18 -14z"/>
<path d="M431 1117 c-8 -8 -8 -14 0 -24 17 -19 35 -16 35 7 0 23 -19 33 -35
17z"/>
<path d="M4225 1030 c-3 -5 -5 -10 -3 -11 2 0 13 -2 26 -5 21 -4 22 -2 8 11
-17 18 -23 19 -31 5z"/>
<path d="M4132 1018 c-15 -15 -15 -28 -1 -28 11 0 39 24 39 34 0 11 -26 6 -38
-6z"/>
<path d="M4417 1024 c-4 -4 -7 -38 -7 -74 0 -79 14 -99 58 -84 26 9 27 12 27
84 l0 75 -35 3 c-20 2 -39 0 -43 -4z"/>
<path d="M4195 950 c-3 -11 -14 -20 -24 -20 -28 0 -46 -26 -31 -45 7 -8 20
-15 28 -15 12 0 13 -3 5 -11 -6 -6 -8 -20 -5 -31 4 -15 11 -19 34 -16 16 3 33
-1 39 -9 15 -18 25 -17 59 8 17 13 26 27 23 36 -5 12 -7 12 -14 2 -4 -8 -12
-10 -16 -5 -4 5 -2 11 4 13 7 3 23 13 35 24 l23 19 -20 18 c-12 9 -24 25 -28
35 -7 19 -28 22 -44 6 -8 -8 -13 -8 -17 0 -12 18 -44 12 -51 -9z"/>
<path d="M630 846 c0 -2 7 -7 16 -10 8 -3 12 -2 9 4 -6 10 -25 14 -25 6z"/>
<path d="M4421 824 c0 -11 3 -14 6 -6 3 7 2 16 -1 19 -3 4 -6 -2 -5 -13z"/>
<path d="M664 788 c-4 -6 -3 -8 4 -4 6 3 15 -1 20 -10 5 -9 15 -15 22 -12 8 2
3 10 -13 21 -19 12 -28 14 -33 5z"/>
<path d="M619 782 c-11 -2 -15 -10 -12 -22 6 -21 29 -34 38 -20 9 15 -10 46
-26 42z"/>
<path d="M4530 780 c0 -5 -6 -10 -14 -10 -20 0 -30 -18 -18 -33 6 -7 12 -16
13 -22 2 -5 9 -9 15 -7 7 1 15 -2 19 -7 8 -14 47 27 43 45 -2 8 -7 14 -12 14
-5 -1 -13 5 -18 14 -10 18 -28 22 -28 6z"/>
<path d="M4145 770 c-9 -14 3 -29 23 -28 9 0 29 -2 45 -5 37 -8 34 -3 -13 22
-47 24 -47 24 -55 11z"/>
<path d="M2141 722 c-1 -8 -6 -10 -13 -6 -10 5 -10 4 -1 -6 15 -16 28 -8 20
12 -4 11 -6 11 -6 0z"/>
<path d="M4250 720 c0 -5 5 -10 11 -10 5 0 7 5 4 10 -3 6 -8 10 -11 10 -2 0
-4 -4 -4 -10z"/>
<path d="M4110 705 c-11 -13 -10 -14 4 -9 9 3 16 10 16 15 0 13 -6 11 -20 -6z"/>
<path d="M595 590 c-3 -6 1 -7 9 -4 18 7 21 14 7 14 -6 0 -13 -4 -16 -10z"/>
<path d="M826 562 c-2 -4 9 -7 25 -7 31 -1 30 7 -1 12 -10 1 -21 -1 -24 -5z"/>
</g>
</svg>
